Pontano-Light.ufo
<glyph name="ampersand" format="1">
  <advance width="1430"/>
  <unicode hex="0026"/>
  <outline>
    <contour>
      <point x="673" y="1491" type="curve" smooth="yes"/>
      <point x="491.568" y="1491"/>
      <point x="325.813" y="1389.18"/>
      <point x="325.813" y="1197.83" type="curve" smooth="yes"/>
      <point x="325.813" y="1104.61"/>
      <point x="359.074" y="1019.51"/>
      <point x="430" y="939" type="curve" smooth="yes"/>
      <point x="1285" y="-23" type="line"/>
      <point x="1367" y="58" type="line"/>
      <point x="544" y="979" type="line"/>
      <point x="477.949" y="1054.49"/>
      <point x="453.744" y="1131.76"/>
      <point x="453.744" y="1198.2" type="curve" smooth="yes"/>
      <point x="453.744" y="1316.62"/>
      <point x="564.367" y="1380"/>
      <point x="678" y="1380" type="curve" smooth="yes"/>
      <point x="782.504" y="1380"/>
      <point x="887.007" y="1321.56"/>
      <point x="887.007" y="1206.64" type="curve" smooth="yes"/>
      <point x="887.007" y="1112.92"/>
      <point x="815.313" y="996.125"/>
      <point x="550" y="890" type="curve" smooth="yes"/>
      <point x="220" y="757"/>
      <point x="98" y="610"/>
      <point x="98" y="408" type="curve" smooth="yes"/>
      <point x="98" y="169"/>
      <point x="292" y="-25"/>
      <point x="582" y="-25" type="curve" smooth="yes"/>
      <point x="901" y="-25"/>
      <point x="1249" y="187"/>
      <point x="1309" y="783" type="curve"/>
      <point x="1192" y="801" type="line"/>
      <point x="1157" y="409"/>
      <point x="952" y="87"/>
      <point x="602" y="87" type="curve" smooth="yes"/>
      <point x="346.167" y="87"/>
      <point x="236.993" y="250.505"/>
      <point x="236.993" y="411.792" type="curve" smooth="yes"/>
      <point x="236.993" y="557.331"/>
      <point x="311.723" y="667.391"/>
      <point x="615" y="812" type="curve" smooth="yes"/>
      <point x="804" y="901"/>
      <point x="1009" y="1015"/>
      <point x="1009" y="1211" type="curve" smooth="yes"/>
      <point x="1009" y="1393"/>
      <point x="861" y="1491"/>
    </contour>
  </outline>
</glyph>
<glyph name="parenleft" format="1">
  <advance width="602"/>
  <unicode hex="0028"/>
  <outline>
    <contour>
      <point x="523" y="-181" type="curve"/>
      <point x="551" y="-100" type="line"/>
      <point x="276" y="-24"/>
      <point x="180" y="289"/>
      <point x="180" y="703" type="curve" smooth="yes"/>
      <point x="180" y="1117"/>
      <point x="276" y="1430"/>
      <point x="551" y="1506" type="curve"/>
      <point x="523" y="1587" type="line"/>
      <point x="232" y="1518"/>
      <point x="38" y="1242"/>
      <point x="38" y="703" type="curve" smooth="yes"/>
      <point x="38" y="164"/>
      <point x="232" y="-112"/>
    </contour>
  </outline>
</glyph>
<glyph name="parenright" format="1">
  <advance width="602"/>
  <unicode hex="0029"/>
  <outline>
    <contour>
      <point x="66" y="-181" type="line"/>
      <point x="357" y="-112"/>
      <point x="551" y="164"/>
      <point x="551" y="703" type="curve" smooth="yes"/>
      <point x="551" y="1242"/>
      <point x="357" y="1518"/>
      <point x="66" y="1587" type="curve"/>
      <point x="38" y="1506" type="line"/>
      <point x="312" y="1430"/>
      <point x="409" y="1117"/>
      <point x="409" y="703" type="curve" smooth="yes"/>
      <point x="409" y="289"/>
      <point x="312" y="-24"/>
      <point x="38" y="-100" type="curve"/>
    </contour>
  </outline>
</glyph>
<glyph name="asterisk" format="1">
  <advance width="826"/>
  <unicode hex="002A"/>
  <outline>
    <contour>
      <point x="364" y="764" type="line"/>
      <point x="459" y="764" type="line"/>
      <point x="449" y="1053" type="line"/>
      <point x="707" y="898" type="line"/>
      <point x="750" y="984" type="line"/>
      <point x="483" y="1114" type="line"/>
      <point x="749" y="1244" type="line"/>
      <point x="706" y="1330" type="line"/>
      <point x="449" y="1175" type="line"/>
      <point x="459" y="1463" type="line"/>
      <point x="364" y="1463" type="line"/>
      <point x="374" y="1174" type="line"/>
      <point x="117" y="1329" type="line"/>
      <point x="73" y="1243" type="line"/>
      <point x="340" y="1113" type="line"/>
      <point x="74" y="983" type="line"/>
      <point x="118" y="897" type="line"/>
      <point x="374" y="1052" type="line"/>
    </contour>
  </outline>
</glyph>
<glyph name="comma" format="1">
  <advance width="445"/>
  <unicode hex="002C"/>
  <outline>
    <contour>
      <point x="161" y="-250" type="line"/>
      <point x="303" y="-158"/>
      <point x="300" y="-16"/>
      <point x="306" y="138" type="curve"/>
      <point x="306" y="217" type="line"/>
      <point x="91" y="217" type="line"/>
      <point x="91" y="32" type="line"/>
      <point x="182" y="19" type="line"/>
      <point x="179" y="-106"/>
      <point x="128" y="-172"/>
      <point x="103" y="-191" type="curve"/>
    </contour>
  </outline>
</glyph>
<glyph name="six" format="1">
  <advance width="1198"/>
  <unicode hex="0036"/>
  <outline>
    <contour>
      <point x="275" y="817" type="curve"/>
      <point x="288.089" y="1177.46"/>
      <point x="428.481" y="1380.09"/>
      <point x="648.74" y="1380.09" type="curve" smooth="yes"/>
      <point x="739.178" y="1380.09"/>
      <point x="834.689" y="1350.09"/>
      <point x="918" y="1291" type="curve"/>
      <point x="957" y="1396" type="line"/>
      <point x="863" y="1460"/>
      <point x="736" y="1491"/>
      <point x="638" y="1491" type="curve" smooth="yes"/>
      <point x="339" y="1491"/>
      <point x="125" y="1201"/>
      <point x="125" y="700" type="curve" smooth="yes"/>
      <point x="125" y="253"/>
      <point x="276" y="-25"/>
      <point x="620" y="-25" type="curve" smooth="yes"/>
      <point x="922" y="-25"/>
      <point x="1078" y="235"/>
      <point x="1078" y="485" type="curve" smooth="yes"/>
      <point x="1078" y="779.793"/>
      <point x="900.505" y="946.602"/>
      <point x="643.03" y="946.602" type="curve" smooth="yes"/>
      <point x="511.429" y="946.602"/>
      <point x="379.015" y="899.569"/>
    </contour>
    <contour>
      <point x="275" y="704" type="line"/>
      <point x="379.604" y="786.416"/>
      <point x="496.322" y="840.364"/>
      <point x="624.67" y="840.364" type="curve" smooth="yes"/>
      <point x="840.978" y="840.364"/>
      <point x="935" y="716.625"/>
      <point x="935" y="481" type="curve" smooth="yes"/>
      <point x="935" y="235"/>
      <point x="811" y="87"/>
      <point x="620" y="87" type="curve" smooth="yes"/>
      <point x="337" y="87"/>
      <point x="275" y="367"/>
      <point x="275" y="661" type="curve" smooth="yes"/>
    </contour>
  </outline>
</glyph>
<glyph name="eight" format="1">
  <advance width="1151"/>
  <unicode hex="0038"/>
  <outline>
    <contour>
      <point x="565" y="-25" type="curve" smooth="yes"/>
      <point x="881" y="-25"/>
      <point x="1058" y="161"/>
      <point x="1058" y="365" type="curve" smooth="yes"/>
      <point x="1058" y="506"/>
      <point x="1016" y="627"/>
      <point x="761" y="750" type="curve"/>
      <point x="850" y="782"/>
      <point x="1044" y="903"/>
      <point x="1044" y="1099" type="curve" smooth="yes"/>
      <point x="1044" y="1375"/>
      <point x="835" y="1491"/>
      <point x="590" y="1491" type="curve" smooth="yes"/>
      <point x="352" y="1491"/>
      <point x="124" y="1379"/>
      <point x="124" y="1101" type="curve" smooth="yes"/>
      <point x="124" y="925"/>
      <point x="286" y="814"/>
      <point x="399" y="761" type="curve"/>
      <point x="195" y="642"/>
      <point x="102" y="502"/>
      <point x="102" y="351" type="curve" smooth="yes"/>
      <point x="102" y="155"/>
      <point x="277" y="-25"/>
    </contour>
    <contour>
      <point x="580" y="87" type="curve" smooth="yes"/>
      <point x="369.887" y="87"/>
      <point x="251.994" y="219.876"/>
      <point x="251.994" y="366.147" type="curve" smooth="yes"/>
      <point x="251.994" y="487.658"/>
      <point x="341.703" y="626.822"/>
      <point x="497" y="720" type="curve"/>
      <point x="712" y="658"/>
      <point x="918" y="586"/>
      <point x="918" y="368" type="curve" smooth="yes"/>
      <point x="918" y="184"/>
      <point x="740" y="87"/>
    </contour>
    <contour>
      <point x="657" y="789" type="curve"/>
      <point x="452" y="854"/>
      <point x="268" y="914"/>
      <point x="268" y="1104" type="curve" smooth="yes"/>
      <point x="268" y="1307"/>
      <point x="437" y="1380"/>
      <point x="590" y="1380" type="curve" smooth="yes"/>
      <point x="755" y="1380"/>
      <point x="902" y="1298"/>
      <point x="902" y="1101" type="curve" smooth="yes"/>
      <point x="902" y="931"/>
      <point x="752" y="835"/>
    </contour>
  </outline>
</glyph>
<glyph name="B" format="1">
  <advance width="1300"/>
  <unicode hex="0042"/>
  <outline>
    <contour>
      <point x="650" y="1464" type="move" name="top"/>
    </contour>
    <contour>
      <point x="876" y="782" type="curve"/>
      <point x="1108.86" y="805.388"/>
      <point x="1171.13" y="926.25"/>
      <point x="1171.13" y="1105.53" type="curve" smooth="yes"/>
      <point x="1171.13" y="1417.15"/>
      <point x="889.359" y="1464"/>
      <point x="591" y="1464" type="curve" smooth="yes"/>
      <point x="154" y="1464" type="line"/>
      <point x="154" y="0" type="line"/>
      <point x="555" y="0" type="line" smooth="yes"/>
      <point x="1013" y="0"/>
      <point x="1215" y="85"/>
      <point x="1215" y="413" type="curve" smooth="yes"/>
      <point x="1215" y="629"/>
      <point x="1113" y="760"/>
    </contour>
    <contour>
      <point x="292" y="107" type="line"/>
      <point x="292" y="733" type="line"/>
      <point x="589" y="733" type="line" smooth="yes"/>
      <point x="892" y="733"/>
      <point x="1077" y="697"/>
      <point x="1077" y="415" type="curve" smooth="yes"/>
      <point x="1077" y="122"/>
      <point x="836" y="107"/>
      <point x="615" y="107" type="curve" smooth="yes"/>
    </contour>
    <contour>
      <point x="292" y="835" type="line"/>
      <point x="292" y="1357" type="line"/>
      <point x="598" y="1357" type="line" smooth="yes"/>
      <point x="832.435" y="1357"/>
      <point x="1039" y="1347.05"/>
      <point x="1039" y="1100.79" type="curve" smooth="yes"/>
      <point x="1039" y="846.087"/>
      <point x="872.598" y="835"/>
      <point x="558" y="835" type="curve" smooth="yes"/>
    </contour>
  </outline>
</glyph>
<glyph name="C" format="1">
  <advance width="1381"/>
  <unicode hex="0043"/>
  <outline>
    <contour>
      <point x="711" y="1464" type="move" name="top"/>
    </contour>
    <contour>
      <point x="739" y="-24" type="curve" smooth="yes"/>
      <point x="997" y="-24"/>
      <point x="1196" y="104"/>
      <point x="1266" y="366" type="curve"/>
      <point x="1139" y="395" type="line"/>
      <point x="1094" y="216"/>
      <point x="966" y="87"/>
      <point x="734" y="87" type="curve" smooth="yes"/>
      <point x="386" y="87"/>
      <point x="264" y="339"/>
      <point x="264" y="736" type="curve" smooth="yes"/>
      <point x="264" y="1133"/>
      <point x="386" y="1380"/>
      <point x="734" y="1380" type="curve" smooth="yes"/>
      <point x="966" y="1380"/>
      <point x="1094" y="1252"/>
      <point x="1139" y="1072" type="curve"/>
      <point x="1266" y="1101" type="line"/>
      <point x="1196" y="1363"/>
      <point x="997" y="1491"/>
      <point x="739" y="1491" type="curve" smooth="yes"/>
      <point x="360" y="1491"/>
      <point x="118" y="1267"/>
      <point x="118" y="736" type="curve" smooth="yes"/>
      <point x="118" y="205"/>
      <point x="360" y="-24"/>
    </contour>
  </outline>
</glyph>
<glyph name="D" format="1">
  <advance width="1404"/>
  <unicode hex="0044"/>
  <outline>
    <contour>
      <point x="702" y="1464" type="move" name="top"/>
    </contour>
    <contour>
      <point x="292" y="106" type="line"/>
      <point x="292" y="1358" type="line"/>
      <point x="655" y="1358" type="line" smooth="yes"/>
      <point x="1042" y="1358"/>
      <point x="1146" y="1131"/>
      <point x="1146" y="737" type="curve" smooth="yes"/>
      <point x="1146" y="288"/>
      <point x="1013" y="106"/>
      <point x="599" y="106" type="curve" smooth="yes"/>
    </contour>
    <contour>
      <point x="154" y="0" type="line"/>
      <point x="645" y="0" type="line" smooth="yes"/>
      <point x="1080" y="0"/>
      <point x="1286" y="202"/>
      <point x="1286" y="738" type="curve" smooth="yes"/>
      <point x="1286" y="1280"/>
      <point x="1062" y="1464"/>
      <point x="653" y="1464" type="curve" smooth="yes"/>
      <point x="154" y="1464" type="line"/>
    </contour>
  </outline>
</glyph>
<glyph name="E" format="1">
  <advance width="1204"/>
  <unicode hex="0045"/>
  <outline>
    <contour>
      <point x="672" y="1464" type="move" name="top"/>
    </contour>
    <contour>
      <point x="728" y="0" type="move" name="ogonek"/>
    </contour>
    <contour>
      <point x="154" y="0" type="line"/>
      <point x="1129" y="0" type="line"/>
      <point x="1129" y="107" type="line"/>
      <point x="292" y="107" type="line"/>
      <point x="292" y="726" type="line"/>
      <point x="1011" y="726" type="line"/>
      <point x="1011" y="836" type="line"/>
      <point x="292" y="836" type="line"/>
      <point x="292" y="1357" type="line"/>
      <point x="1118" y="1357" type="line"/>
      <point x="1118" y="1464" type="line"/>
      <point x="154" y="1464" type="line"/>
    </contour>
  </outline>
</glyph>
<glyph name="G" format="1">
  <advance width="1390"/>
  <unicode hex="0047"/>
  <outline>
    <contour>
      <point x="695" y="1464" type="move" name="top"/>
    </contour>
    <contour>
      <point x="724" y="-25" type="curve" smooth="yes"/>
      <point x="908" y="-25"/>
      <point x="1060" y="59"/>
      <point x="1124" y="189" type="curve"/>
      <point x="1151" y="0" type="line"/>
      <point x="1243" y="0" type="line"/>
      <point x="1243" y="0"/>
      <point x="1253" y="428"/>
      <point x="1253" y="581" type="curve" smooth="yes"/>
      <point x="1253" y="786" type="line"/>
      <point x="738" y="786" type="line"/>
      <point x="738" y="667" type="line"/>
      <point x="1116" y="667" type="line"/>
      <point x="1116" y="443" type="line" smooth="yes"/>
      <point x="1116" y="199"/>
      <point x="908" y="87"/>
      <point x="742" y="87" type="curve" smooth="yes"/>
      <point x="398" y="87"/>
      <point x="264" y="319"/>
      <point x="264" y="721" type="curve" smooth="yes"/>
      <point x="264" y="1149"/>
      <point x="406" y="1380"/>
      <point x="743" y="1380" type="curve" smooth="yes"/>
      <point x="924" y="1380"/>
      <point x="1057" y="1281"/>
      <point x="1123" y="1100" type="curve"/>
      <point x="1243" y="1142" type="line"/>
      <point x="1156" y="1377"/>
      <point x="982" y="1491"/>
      <point x="744" y="1491" type="curve" smooth="yes"/>
      <point x="371" y="1491"/>
      <point x="118" y="1269"/>
      <point x="118" y="722" type="curve" smooth="yes"/>
      <point x="118" y="168"/>
      <point x="384" y="-25"/>
    </contour>
  </outline>
</glyph>
<glyph name="H" format="1">
  <advance width="1462"/>
  <unicode hex="0048"/>
  <outline>
    <contour>
      <point x="731" y="1464" type="move" name="top"/>
    </contour>
    <contour>
      <point x="154" y="0" type="line"/>
      <point x="292" y="0" type="line"/>
      <point x="292" y="725" type="line"/>
      <point x="1170" y="725" type="line"/>
      <point x="1170" y="0" type="line"/>
      <point x="1308" y="0" type="line"/>
      <point x="1308" y="1464" type="line"/>
      <point x="1170" y="1464" type="line"/>
      <point x="1170" y="835" type="line"/>
      <point x="292" y="835" type="line"/>
      <point x="292" y="1464" type="line"/>
      <point x="154" y="1464" type="line"/>
    </contour>
  </outline>
</glyph>
<glyph name="I" format="1">
  <advance width="464"/>
  <unicode hex="0049"/>
  <outline>
    <contour>
      <point x="232" y="1464" type="move" name="top"/>
    </contour>
    <contour>
      <point x="247" y="0" type="move" name="ogonek"/>
    </contour>
    <contour>
      <point x="167" y="0" type="line"/>
      <point x="305" y="0" type="line"/>
      <point x="305" y="1464" type="line"/>
      <point x="167" y="1464" type="line"/>
    </contour>
  </outline>
</glyph>
<glyph name="U" format="1">
  <advance width="1341"/>
  <unicode hex="0055"/>
  <outline>
    <contour>
      <point x="670" y="1464" type="move" name="top"/>
    </contour>
    <contour>
      <point x="805" y="0" type="move" name="ogonek"/>
    </contour>
    <contour>
      <point x="668" y="-24" type="curve" smooth="yes"/>
      <point x="1043" y="-24"/>
      <point x="1218" y="157"/>
      <point x="1218" y="577" type="curve" smooth="yes"/>
      <point x="1218" y="1464" type="line"/>
      <point x="1079" y="1464" type="line"/>
      <point x="1079" y="572" type="line" smooth="yes"/>
      <point x="1079" y="277"/>
      <point x="1003" y="86"/>
      <point x="674" y="86" type="curve" smooth="yes"/>
      <point x="342" y="86"/>
      <point x="262" y="270"/>
      <point x="262" y="572" type="curve" smooth="yes"/>
      <point x="262" y="1464" type="line"/>
      <point x="124" y="1464" type="line"/>
      <point x="124" y="570" type="line" smooth="yes"/>
      <point x="124" y="149"/>
      <point x="307" y="-24"/>
    </contour>
  </outline>
</glyph>
<glyph name="bracketleft" format="1">
  <advance width="708"/>
  <unicode hex="005B"/>
  <outline>
    <contour>
      <point x="132" y="-52" type="line"/>
      <point x="587" y="-52" type="line"/>
      <point x="587" y="50" type="line"/>
      <point x="270" y="50" type="line"/>
      <point x="270" y="1379" type="line"/>
      <point x="587" y="1379" type="line"/>
      <point x="587" y="1480" type="line"/>
      <point x="132" y="1480" type="line"/>
    </contour>
  </outline>
</glyph>
<glyph name="grave" format="1">
  <advance width="496"/>
  <unicode hex="0060"/>
  <outline>
    <contour>
      <point x="358" y="1023" type="move" name="_top"/>
    </contour>
    <contour>
      <point x="365" y="1154" type="line"/>
      <point x="454" y="1155" type="line"/>
      <point x="249" y="1474" type="line"/>
      <point x="63" y="1474" type="line"/>
    </contour>
  </outline>
</glyph>
<glyph name="d" format="1">
  <advance width="1079"/>
  <unicode hex="0064"/>
  <outline>
    <contour>
      <point x="540" y="1023" type="move" name="top"/>
    </contour>
    <contour>
      <point x="957" y="1023" type="move" name="caron.alt"/>
    </contour>
    <contour>
      <point x="508" y="-24" type="curve" smooth="yes"/>
      <point x="685" y="-24"/>
      <point x="785" y="64"/>
      <point x="838" y="187" type="curve"/>
      <point x="845" y="0" type="line"/>
      <point x="950" y="0" type="line"/>
      <point x="950" y="1474" type="line"/>
      <point x="815" y="1474" type="line"/>
      <point x="815" y="870" type="line"/>
      <point x="750" y="981"/>
      <point x="644" y="1044"/>
      <point x="507" y="1044" type="curve" smooth="yes"/>
      <point x="261" y="1044"/>
      <point x="101" y="854"/>
      <point x="101" y="500" type="curve" smooth="yes"/>
      <point x="101" y="192"/>
      <point x="247" y="-24"/>
    </contour>
    <contour>
      <point x="531.85" y="72.4776" type="curve" smooth="yes"/>
      <point x="338.764" y="72.4776"/>
      <point x="238" y="218.916"/>
      <point x="238" y="513" type="curve" smooth="yes"/>
      <point x="238" y="793"/>
      <point x="337" y="947"/>
      <point x="515" y="947" type="curve" smooth="yes"/>
      <point x="707" y="946"/>
      <point x="822" y="809"/>
      <point x="822" y="520" type="curve" smooth="yes"/>
      <point x="822" y="207.263"/>
      <point x="712.993" y="72.4776"/>
    </contour>
  </outline>
</glyph>
<glyph name="g" format="1">
  <advance width="1091"/>
  <unicode hex="0067"/>
  <outline>
    <contour>
      <point x="546" y="1023" type="move" name="top"/>
    </contour>
    <contour>
      <point x="522.819" y="-424.083" type="curve" smooth="yes"/>
      <point x="811.995" y="-424.083"/>
      <point x="959" y="-243.044"/>
      <point x="959" y="42" type="curve" smooth="yes"/>
      <point x="959" y="1023" type="line"/>
      <point x="843" y="1023" type="line"/>
      <point x="831" y="840" type="line"/>
      <point x="767" y="969"/>
      <point x="655" y="1044"/>
      <point x="506" y="1044" type="curve" smooth="yes"/>
      <point x="259" y="1044"/>
      <point x="84" y="856"/>
      <point x="84" y="501" type="curve" smooth="yes"/>
      <point x="84" y="191"/>
      <point x="247" y="-24"/>
      <point x="509" y="-24" type="curve" smooth="yes"/>
      <point x="668" y="-24"/>
      <point x="767" y="47"/>
      <point x="826" y="152" type="curve"/>
      <point x="826" y="37" type="line" smooth="yes"/>
      <point x="826" y="-186"/>
      <point x="733" y="-323"/>
      <point x="532" y="-323" type="curve" smooth="yes"/>
      <point x="386" y="-322"/>
      <point x="302" y="-278"/>
      <point x="230" y="-190" type="curve"/>
      <point x="158" y="-265" type="line"/>
      <point x="221.8" y="-346.468"/>
      <point x="343.407" y="-424.083"/>
    </contour>
    <contour>
      <point x="220.975" y="505.872" type="curve" smooth="yes"/>
      <point x="220.975" y="785.969"/>
      <point x="334.345" y="948"/>
      <point x="513" y="948" type="curve" smooth="yes"/>
      <point x="705" y="948"/>
      <point x="825" y="813"/>
      <point x="825" y="524" type="curve" smooth="yes"/>
      <point x="825" y="200"/>
      <point x="735" y="72"/>
      <point x="514" y="72" type="curve" smooth="yes"/>
      <point x="339.458" y="72"/>
      <point x="220.975" y="222.476"/>
    </contour>
  </outline>
</glyph>
<glyph name="u" format="1">
  <advance width="1087"/>
  <unicode hex="0075"/>
  <outline>
    <contour>
      <point x="894" y="0" type="move" name="ogonek"/>
    </contour>
    <contour>
      <point x="544" y="1023" type="move" name="top"/>
    </contour>
    <contour>
      <point x="477" y="-24" type="curve" smooth="yes"/>
      <point x="646" y="-24"/>
      <point x="759" y="45"/>
      <point x="823" y="175" type="curve"/>
      <point x="823" y="0" type="line"/>
      <point x="958" y="0" type="line"/>
      <point x="957" y="1023" type="line"/>
      <point x="823" y="1023" type="line"/>
      <point x="822" y="516" type="line" smooth="yes"/>
      <point x="822" y="269"/>
      <point x="741" y="72"/>
      <point x="505" y="72" type="curve" smooth="yes"/>
      <point x="304" y="72"/>
      <point x="260" y="200"/>
      <point x="260" y="428" type="curve" smooth="yes"/>
      <point x="260" y="1023" type="line"/>
      <point x="125" y="1023" type="line"/>
      <point x="125" y="465" type="line" smooth="yes"/>
      <point x="125" y="256"/>
      <point x="135" y="-24"/>
    </contour>
  </outline>
</glyph>
<glyph name="y" format="1">
  <advance width="972"/>
  <unicode hex="0079"/>
  <outline>
    <contour>
      <point x="486" y="1023" type="move" name="top"/>
    </contour>
    <contour>
      <point x="77" y="-306" type="line"/>
      <point x="121.814" y="-318.112"/>
      <point x="158.451" y="-320.5"/>
      <point x="203.107" y="-320.5" type="curve" smooth="yes"/>
      <point x="402.448" y="-320.5"/>
      <point x="467.633" y="-180.333"/>
      <point x="573" y="100" type="curve" smooth="yes"/>
      <point x="921" y="1023" type="line"/>
      <point x="788" y="1023" type="line"/>
      <point x="487" y="197" type="line"/>
      <point x="186" y="1023" type="line"/>
      <point x="47" y="1023" type="line"/>
      <point x="419" y="57" type="line"/>
      <point x="398" y="-5" type="line" smooth="yes"/>
      <point x="346" y="-161"/>
      <point x="297" y="-205"/>
      <point x="182" y="-205" type="curve" smooth="yes"/>
      <point x="155" y="-205"/>
      <point x="126" y="-202"/>
      <point x="92" y="-197" type="curve"/>
    </contour>
  </outline>
</glyph>
<glyph name="yen" format="1">
  <advance width="1162"/>
  <unicode hex="00A5"/>
  <outline>
    <component base="Y"/>
    <contour>
      <point x="260" y="337" type="line"/>
      <point x="906" y="337" type="line"/>
      <point x="906" y="419" type="line"/>
      <point x="260" y="419" type="line"/>
    </contour>
    <contour>
      <point x="260" y="544" type="line"/>
      <point x="906" y="544" type="line"/>
      <point x="906" y="626" type="line"/>
      <point x="260" y="626" type="line"/>
    </contour>
  </outline>
</glyph>
<glyph name="dieresis" format="1">
  <advance width="860"/>
  <unicode hex="00A8"/>
  <outline>
    <contour>
      <point x="430" y="1023" type="move" name="_top"/>
    </contour>
    <contour>
      <point x="141" y="1194" type="line"/>
      <point x="300" y="1194" type="line"/>
      <point x="300" y="1362" type="line"/>
      <point x="141" y="1362" type="line"/>
    </contour>
    <contour>
      <point x="513" y="1194" type="line"/>
      <point x="672" y="1194" type="line"/>
      <point x="672" y="1362" type="line"/>
      <point x="513" y="1362" type="line"/>
    </contour>
  </outline>
</glyph>
<glyph name="twosuperior" format="1">
  <advance width="1228"/>
  <unicode hex="00B2"/>
  <outline>
    <contour>
      <point x="393" y="807" type="curve"/>
      <point x="854" y="807" type="line"/>
      <point x="854" y="884" type="line"/>
      <point x="536" y="884" type="line"/>
      <point x="623.27" y="1034.47"/>
      <point x="852.006" y="1073.94"/>
      <point x="852.006" y="1285.68" type="curve" smooth="yes"/>
      <point x="852.006" y="1422.56"/>
      <point x="730.548" y="1491"/>
      <point x="620" y="1491" type="curve" smooth="yes"/>
      <point x="518" y="1491"/>
      <point x="413" y="1438"/>
      <point x="373" y="1322" type="curve"/>
      <point x="390" y="1315"/>
      <point x="459" y="1279"/>
      <point x="459" y="1278" type="curve"/>
      <point x="474" y="1357"/>
      <point x="550" y="1398"/>
      <point x="618" y="1398" type="curve" smooth="yes"/>
      <point x="683" y="1398"/>
      <point x="748" y="1361"/>
      <point x="748" y="1273" type="curve" smooth="yes"/>
      <point x="748" y="1137"/>
      <point x="401" y="1018"/>
    </contour>
  </outline>
</glyph>
<glyph name="cedilla" format="1">
  <advance width="435"/>
  <unicode hex="00B8"/>
  <outline>
    <contour>
      <point x="301" y="-66" type="curve" smooth="yes"/>
      <point x="271" y="0" type="line"/>
      <point x="205" y="0" type="line"/>
      <point x="225" y="-51" type="line" smooth="yes"/>
      <point x="238.769" y="-86.1098"/>
      <point x="244.853" y="-114.14"/>
      <point x="244.853" y="-136.206" type="curve" smooth="yes"/>
      <point x="244.853" y="-188.675"/>
      <point x="210.449" y="-207.419"/>
      <point x="163.133" y="-207.419" type="curve" smooth="yes"/>
      <point x="140.292" y="-207.419"/>
      <point x="114.441" y="-203.051"/>
      <point x="88" y="-196" type="curve"/>
      <point x="88" y="-258" type="line"/>
      <point x="117.992" y="-270.854"/>
      <point x="147.588" y="-276.796"/>
      <point x="175.082" y="-276.796" type="curve" smooth="yes"/>
      <point x="256.662" y="-276.796"/>
      <point x="319.739" y="-224.477"/>
      <point x="319.739" y="-145.137" type="curve" smooth="yes"/>
      <point x="319.739" y="-121.018"/>
      <point x="313.91" y="-94.4023"/>
    </contour>
  </outline>
</glyph>
<glyph name="onesuperior" format="1">
  <advance width="508"/>
  <unicode hex="00B9"/>
  <outline>
    <contour>
      <point x="260" y="1373" type="line"/>
      <point x="245" y="710" type="line"/>
      <point x="369" y="794" type="line"/>
      <point x="355" y="1559" type="line"/>
      <point x="241" y="1461" type="line"/>
      <point x="91" y="1388" type="line"/>
      <point x="136" y="1297" type="line"/>
    </contour>
  </outline>
</glyph>
<glyph name="Eth" format="1">
  <advance width="1444"/>
  <unicode hex="00D0"/>
  <outline>
    <component base="D"/>
    <contour>
      <point x="0" y="704" type="line"/>
      <point x="548" y="704" type="line"/>
      <point x="548" y="786" type="line"/>
      <point x="0" y="786" type="line"/>
    </contour>
  </outline>
</glyph>
<glyph name="eng" format="1">
  <advance width="1084"/>
  <unicode hex="014B"/>
  <outline>
    <contour>
      <point x="533" y="-410" type="line"/>
      <point x="815" y="-407"/>
      <point x="959" y="-219"/>
      <point x="959" y="-21" type="curve" smooth="yes"/>
      <point x="959" y="583" type="line" smooth="yes"/>
      <point x="959" y="786"/>
      <point x="940" y="1044"/>
      <point x="620" y="1044" type="curve" smooth="yes"/>
      <point x="452" y="1044"/>
      <point x="331" y="979"/>
      <point x="262" y="848" type="curve"/>
      <point x="262" y="1023" type="line"/>
      <point x="128" y="1023" type="line"/>
      <point x="128" y="0" type="line"/>
      <point x="263" y="0" type="line"/>
      <point x="262" y="571" type="line"/>
      <point x="276" y="790"/>
      <point x="365" y="948"/>
      <point x="600" y="948" type="curve" smooth="yes"/>
      <point x="779" y="948"/>
      <point x="824" y="818"/>
      <point x="824" y="606" type="curve" smooth="yes"/>
      <point x="824" y="-25" type="line" smooth="yes"/>
      <point x="824" y="-166.503"/>
      <point x="733.636" y="-308.005"/>
      <point x="534.108" y="-308.005" type="curve" smooth="yes"/>
      <point x="532" y="-308.005" type="line" smooth="yes"/>
    </contour>
  </outline>
</glyph>
<glyph name="OE" format="1">
  <advance width="2171"/>
  <unicode hex="0152"/>
  <outline>
    <contour>
      <point x="706" y="-25" type="curve" smooth="yes"/>
      <point x="954" y="-25"/>
      <point x="1118" y="82"/>
      <point x="1164" y="269" type="curve"/>
      <point x="1164" y="0" type="line"/>
      <point x="2121" y="0" type="line"/>
      <point x="2121" y="108" type="line"/>
      <point x="1303" y="108" type="line"/>
      <point x="1303" y="726" type="line"/>
      <point x="1994" y="726" type="line"/>
      <point x="1994" y="836" type="line"/>
      <point x="1303" y="836" type="line"/>
      <point x="1303" y="1357" type="line"/>
      <point x="2110" y="1357" type="line"/>
      <point x="2110" y="1464" type="line"/>
      <point x="1163" y="1464" type="line"/>
      <point x="1164" y="1221" type="line"/>
      <point x="1102" y="1395"/>
      <point x="957" y="1491"/>
      <point x="710" y="1491" type="curve" smooth="yes"/>
      <point x="331" y="1491"/>
      <point x="113" y="1282"/>
      <point x="113" y="740" type="curve" smooth="yes"/>
      <point x="113" y="186"/>
      <point x="323" y="-25"/>
    </contour>
    <contour>
      <point x="1164" y="696" type="curve" smooth="yes"/>
      <point x="1164" y="266.185"/>
      <point x="1042.56" y="86.9965"/>
      <point x="704.607" y="86.9965" type="curve" smooth="yes"/>
      <point x="364.505" y="86.9965"/>
      <point x="259" y="300.033"/>
      <point x="259" y="741" type="curve" smooth="yes"/>
      <point x="259" y="1132.91"/>
      <point x="352.222" y="1380.02"/>
      <point x="716.403" y="1380.02" type="curve" smooth="yes"/>
      <point x="1062.45" y="1380.02"/>
      <point x="1164" y="1239.15"/>
    </contour>
  </outline>
</glyph>
<glyph name="circumflex" format="1">
  <advance width="838"/>
  <unicode hex="02C6"/>
  <outline>
    <contour>
      <point x="419" y="1023" type="move" name="_top"/>
    </contour>
    <contour>
      <point x="129" y="1154" type="line"/>
      <point x="221" y="1154" type="line"/>
      <point x="400" y="1411" type="line"/>
      <point x="579" y="1154" type="line"/>
      <point x="672" y="1154" type="line"/>
      <point x="484" y="1474" type="line"/>
      <point x="317" y="1474" type="line"/>
    </contour>
  </outline>
</glyph>
<glyph name="dotaccent" format="1">
  <advance width="434"/>
  <unicode hex="02D9"/>
  <outline>
    <contour>
      <point x="224" y="1023" type="move" name="_top"/>
    </contour>
    <contour>
      <point x="150" y="1231" type="line"/>
      <point x="287" y="1231" type="line"/>
      <point x="287" y="1443" type="line"/>
      <point x="150" y="1443" type="line"/>
    </contour>
  </outline>
</glyph>
<glyph name="ring" format="1">
  <advance width="728"/>
  <unicode hex="02DA"/>
  <outline>
    <contour>
      <point x="364" y="1023" type="move" name="_top"/>
    </contour>
    <contour>
      <point x="361" y="1247" type="curve" smooth="yes"/>
      <point x="265" y="1247"/>
      <point x="216" y="1326"/>
      <point x="216" y="1400" type="curve" smooth="yes"/>
      <point x="216" y="1474"/>
      <point x="265" y="1553"/>
      <point x="361" y="1553" type="curve" smooth="yes"/>
      <point x="456" y="1553"/>
      <point x="505" y="1474"/>
      <point x="505" y="1400" type="curve" smooth="yes"/>
      <point x="505" y="1326"/>
      <point x="456" y="1247"/>
    </contour>
    <contour>
      <point x="361" y="1167" type="curve" smooth="yes"/>
      <point x="507" y="1167"/>
      <point x="598" y="1277"/>
      <point x="598" y="1400" type="curve" smooth="yes"/>
      <point x="598" y="1523"/>
      <point x="507" y="1633"/>
      <point x="361" y="1633" type="curve" smooth="yes"/>
      <point x="215" y="1633"/>
      <point x="123" y="1523"/>
      <point x="123" y="1400" type="curve" smooth="yes"/>
      <point x="123" y="1277"/>
      <point x="215" y="1167"/>
    </contour>
  </outline>
</glyph>
<glyph name="dblgravecmb" format="1">
  <advance width="745"/>
  <unicode hex="030F"/>
  <outline>
    <contour>
      <point x="516" y="1023" type="move" name="_top"/>
    </contour>
    <contour>
      <point x="337" y="1154" type="line"/>
      <point x="406" y="1154" type="line"/>
      <point x="267" y="1472" type="line"/>
      <point x="81" y="1472" type="line"/>
    </contour>
    <contour>
      <point x="605" y="1154" type="line"/>
      <point x="668" y="1154" type="line"/>
      <point x="559" y="1472" type="line"/>
      <point x="379" y="1472" type="line"/>
    </contour>
  </outline>
</glyph>
<glyph name="commaaccent" format="1">
  <advance width="409"/>
  <unicode hex="0326"/>
  <outline>
    <contour>
      <point x="190" y="-478" type="line" smooth="yes"/>
      <point x="191.183" y="-478.323"/>
      <point x="192.413" y="-478.481"/>
      <point x="193.686" y="-478.481" type="curve" smooth="yes"/>
      <point x="227.927" y="-478.481"/>
      <point x="293" y="-364.022"/>
      <point x="293" y="-257" type="curve" smooth="yes"/>
      <point x="293" y="-95" type="line"/>
      <point x="100" y="-95" type="line"/>
      <point x="100" y="-256" type="line"/>
      <point x="210" y="-255" type="line"/>
      <point x="208" y="-303"/>
      <point x="206" y="-419"/>
      <point x="145" y="-463" type="curve"/>
    </contour>
  </outline>
</glyph>
<glyph name="quotesinglbase" format="1">
  <advance width="436"/>
  <unicode hex="201A"/>
  <outline>
    <contour>
      <point x="192" y="-382" type="line"/>
      <point x="352" y="-269"/>
      <point x="349" y="-87"/>
      <point x="353" y="93" type="curve"/>
      <point x="117" y="93" type="line"/>
      <point x="117" y="-81" type="line" smooth="yes"/>
      <point x="117" y="-82"/>
      <point x="200" y="-99"/>
      <point x="200" y="-99" type="curve"/>
      <point x="197" y="-219"/>
      <point x="146" y="-296"/>
      <point x="121" y="-319" type="curve"/>
    </contour>
  </outline>
</glyph>
<glyph name="daggerdbl" format="1">
  <advance width="1117"/>
  <unicode hex="2021"/>
  <outline>
    <contour>
      <point x="497" y="0" type="line"/>
      <point x="635" y="0" type="line"/>
      <point x="635" y="496" type="line"/>
      <point x="977" y="496" type="line"/>
      <point x="977" y="601" type="line"/>
      <point x="635" y="601" type="line"/>
      <point x="635" y="965" type="line"/>
      <point x="978" y="965" type="line"/>
      <point x="978" y="1071" type="line"/>
      <point x="635" y="1071" type="line"/>
      <point x="635" y="1464" type="line"/>
      <point x="497" y="1464" type="line"/>
      <point x="497" y="1071" type="line"/>
      <point x="139" y="1071" type="line"/>
      <point x="139" y="965" type="line"/>
      <point x="497" y="965" type="line"/>
      <point x="497" y="601" type="line"/>
      <point x="139" y="601" type="line"/>
      <point x="139" y="496" type="line"/>
      <point x="497" y="496" type="line"/>
    </contour>
  </outline>
</glyph>
<glyph name="perthousand" format="1">
  <advance width="2426"/>
  <unicode hex="2030"/>
  <outline>
    <component base="percent"/>
    <contour>
      <point x="2069" y="91" type="curve" smooth="yes"/>
      <point x="1934" y="91"/>
      <point x="1867" y="213"/>
      <point x="1867" y="350" type="curve" smooth="yes"/>
      <point x="1867" y="489"/>
      <point x="1933" y="611"/>
      <point x="2069" y="611" type="curve" smooth="yes"/>
      <point x="2204" y="611"/>
      <point x="2272" y="492"/>
      <point x="2272" y="350" type="curve" smooth="yes"/>
      <point x="2272" y="213"/>
      <point x="2204" y="91"/>
    </contour>
    <contour>
      <point x="2069" y="2" type="curve" smooth="yes"/>
      <point x="2272" y="2"/>
      <point x="2375" y="178"/>
      <point x="2375" y="351" type="curve" smooth="yes"/>
      <point x="2375" y="524"/>
      <point x="2272" y="699"/>
      <point x="2069" y="699" type="curve" smooth="yes"/>
      <point x="1866" y="699"/>
      <point x="1763" y="524"/>
      <point x="1763" y="351" type="curve" smooth="yes"/>
      <point x="1763" y="178"/>
      <point x="1866" y="2"/>
    </contour>
  </outline>
</glyph>
<glyph name="radical" format="1">
  <advance width="1227"/>
  <unicode hex="221A"/>
  <outline>
    <contour>
      <point x="469" y="0" type="line"/>
      <point x="593" y="0" type="line"/>
      <point x="1151" y="1464" type="line"/>
      <point x="1021" y="1464" type="line"/>
      <point x="525" y="126" type="line"/>
      <point x="245" y="533" type="line"/>
      <point x="108" y="533" type="line"/>
    </contour>
  </outline>
</glyph>
<glyph name="approxequal" format="1">
  <advance width="951"/>
  <unicode hex="2248"/>
  <outline>
    <contour>
      <point x="778" y="559" type="curve" smooth="yes"/>
      <point x="669.228" y="559"/>
      <point x="465.225" y="666.276"/>
      <point x="236.221" y="666.276" type="curve" smooth="yes"/>
      <point x="151.207" y="666.276"/>
      <point x="81.1343" y="638.765"/>
      <point x="67" y="439" type="curve"/>
      <point x="185" y="439" type="line"/>
      <point x="184" y="514"/>
      <point x="218" y="539"/>
      <point x="277" y="539" type="curve" smooth="yes"/>
      <point x="392" y="539"/>
      <point x="601" y="442"/>
      <point x="822" y="432" type="curve" smooth="yes"/>
      <point x="825.745" y="431.86"/>
      <point x="829.42" y="431.789"/>
      <point x="833.024" y="431.789" type="curve" smooth="yes"/>
      <point x="932.381" y="431.789"/>
      <point x="978.315" y="486.056"/>
      <point x="987" y="653" type="curve"/>
      <point x="868" y="653" type="line"/>
      <point x="863" y="583"/>
      <point x="831" y="559"/>
    </contour>
    <contour>
      <point x="729" y="844" type="curve" smooth="yes"/>
      <point x="620.244" y="844"/>
      <point x="416.183" y="950.276"/>
      <point x="187.236" y="950.276" type="curve" smooth="yes"/>
      <point x="102.215" y="950.276"/>
      <point x="32.1352" y="922.719"/>
      <point x="18" y="722" type="curve"/>
      <point x="136" y="722" type="line"/>
      <point x="135" y="797"/>
      <point x="169" y="823"/>
      <point x="228" y="823" type="curve" smooth="yes"/>
      <point x="343" y="823"/>
      <point x="552" y="725"/>
      <point x="773" y="715" type="curve" smooth="yes"/>
      <point x="776.626" y="714.864"/>
      <point x="780.186" y="714.796"/>
      <point x="783.679" y="714.796" type="curve" smooth="yes"/>
      <point x="883.275" y="714.796"/>
      <point x="929.305" y="770.829"/>
      <point x="938" y="937" type="curve"/>
      <point x="819" y="937" type="line"/>
      <point x="814" y="866"/>
      <point x="782" y="844"/>
    </contour>
  </outline>
</glyph>
<glyph name="periodcentered" format="1">
  <advance width="434"/>
  <outline>
    <contour>
      <point x="140" y="545" type="line"/>
      <point x="294" y="545" type="line"/>
      <point x="294" y="757" type="line"/>
      <point x="140" y="757" type="line"/>
    </contour>
  </outline>
</glyph>
